<svg width="21" height="22" viewBox="0 0 21 22" fill="none" xmlns="http://www.w3.org/2000/svg">
<path d="M17 8.72222V6C17 4.89543 16.1046 4 15 4H12.5M17 15.3333V19C17 20.1046 16.1046 21 15 21H3C1.89543 21 1 20.1046 1 19V6C1 4.89543 1.89543 4 3 4H5.5" stroke="#3A286C" stroke-width="1.5" stroke-linecap="round" stroke-linejoin="round"/>
<path d="M12 12H20" stroke="#3A286C" stroke-width="1.5" stroke-linecap="round" stroke-linejoin="round"/>
<path d="M14 9L11 12L14 15" stroke="#3A286C" stroke-width="1.5" stroke-linecap="round" stroke-linejoin="round"/>
<rect x="5.32886" y="1.48682" width="7.3421" height="2.92105" rx="1.46053" stroke="#3A286C" stroke-width="1.5"/>
<line x1="3.75" y1="8.25" x2="5.93421" y2="8.25" stroke="#3A286C" stroke-width="1.5" stroke-linecap="round"/>
<line x1="3.85498" y1="17.671" x2="14.1445" y2="17.671" stroke="#3A286C" stroke-width="1.5" stroke-linecap="round"/>
<line x1="3.75" y1="11.25" x2="8.25" y2="11.25" stroke="#3A286C" stroke-width="1.5" stroke-linecap="round"/>
<line x1="3.85498" y1="14.7236" x2="6.77603" y2="14.7236" stroke="#3A286C" stroke-width="1.5" stroke-linecap="round"/>
</svg>
